<svg xmlns="http://www.w3.org/2000/svg">
  <symbol id="logo" viewBox="0 0 2814.9 789.7">
    <circle cx="394.5" cy="397.2" r="383.5" fill="#ffc73e" />
    <path
      d="M650.5 269.2c0-33-26.8-59.7-59.7-59.7h-256c-5.2 0-10.5.7-15.5 2.1-3.2.8-87.5 32.5-137.4 51.4h-.1c-9.7 2.7-18.6 7.9-25.7 15.1-11.3 11.2-17.6 26.4-17.5 42.3 0 21 11.1 40.4 29.1 51.2-18 10.8-29.1 30.2-29.1 51.2 0 21 11.1 40.4 29.1 51.2-28.3 16.9-37.6 53.5-20.7 81.8 10.8 18.1 30.3 29.1 51.3 29.1h256c8.8 0 17.5-2 25.5-5.8h.2l137.3-51.6c29.5-14.5 41.7-50.3 27.1-79.8-5.1-10.3-13.1-19-23-24.9 4.3-2.5 8.2-5.5 11.6-9 11.3-11.2 17.6-26.4 17.6-42.2-.1-21-11.1-40.4-29.1-51.1 4.2-2.5 8.1-5.5 11.6-9 11.1-11.2 17.4-26.4 17.4-42.3zM323.9 228c3.5-1 7.1-1.5 10.8-1.5h256c23.6 0 42.6 19.1 42.7 42.7.1 11.3-4.5 22.2-12.5 30.1-2.9 3-6.3 5.5-10 7.4-.5.2-.9.5-1.3.7-11.5 4.3-31.8 11.9-63.2 23.7l-37.9 14.2c13.8-29.9.7-65.4-29.2-79.2-7.8-3.6-16.4-5.5-25-5.5h-218c42.5-15.9 84.2-31.5 87.6-32.6zm-168.4 92.4c0-11.3 4.5-22.2 12.6-30.2 5.2-5.2 11.6-9 18.7-10.9.2-.1.5-.1.7-.2 3.5-.9 7.1-1.4 10.7-1.4h256c23.6 0 42.6 19.1 42.7 42.7-.1 16-9 30.6-23.1 37.9-.2.1-.5.2-.7.3-5.8 2.9-12.3 4.4-18.8 4.4h-256c-23.7.1-42.8-19-42.8-42.6zm0 102.4c0-23.5 19.1-42.6 42.7-42.7h256c23.6 0 42.6 19.1 42.7 42.7-.1 16-9 30.6-23.1 37.9-.2.1-.5.2-.7.3-5.8 2.9-12.3 4.4-18.8 4.4h-256c-23.7.1-42.8-19-42.8-42.6zm42.7 145.1c-23.6 0-42.7-19.1-42.7-42.7s19.1-42.7 42.7-42.7h256c23.6 0 42.7 19.1 42.7 42.7s-19.1 42.7-42.7 42.7h-256zM633.4 474c.1 11.3-4.5 22.2-12.5 30.1-3.1 3.1-6.6 5.7-10.5 7.8l-102.1 38.3c12.7-27.3 3-59.8-22.7-75.7l112.6-42.3c20.3 3.7 35.1 21.3 35.2 41.8zm0-102.4c.1 11.3-4.5 22.2-12.5 30.1-2.9 3-6.3 5.5-10 7.4l-1.3.7-101.1 37.9c12.6-27.3 2.9-59.8-22.8-75.6l66.7-25c19.5-7.3 34.6-13 46.1-17.3 20.1 3.7 34.8 21.3 34.9 41.8z"
      fill="#162b49" />
    <path
      d="M450 337.5c0-4.7-3.8-8.5-8.5-8.5H168.4c-4.7 0-8.5 3.8-8.5 8.5s3.8 8.5 8.5 8.5h273.1c4.6 0 8.5-3.8 8.5-8.5zm0 102.4c0-4.7-3.8-8.5-8.5-8.5H168.4c-4.7 0-8.5 3.8-8.5 8.5s3.8 8.5 8.5 8.5h273.1c4.6 0 8.5-3.8 8.5-8.5zm-8.6 93.9h-273c-4.7 0-8.5 3.8-8.5 8.5s3.8 8.5 8.5 8.5h273.1c4.7 0 8.5-3.8 8.5-8.5s-3.9-8.5-8.6-8.5zM202.5 158.3c-4.7 0-8.5 3.8-8.5 8.5v17.1c0 4.7 3.8 8.5 8.5 8.5s8.5-3.8 8.5-8.5v-17.1c0-4.7-3.8-8.5-8.5-8.5zm-8.5 76.8c0 4.7 3.8 8.5 8.5 8.5s8.5-3.8 8.5-8.5V218c0-4.7-3.8-8.5-8.5-8.5s-8.5 3.8-8.5 8.5v17.1zm-8.6-42.7h-17.1c-4.7 0-8.5 3.8-8.5 8.5s3.8 8.5 8.5 8.5h17.1c4.7 0 8.5-3.8 8.5-8.5s-3.8-8.5-8.5-8.5zm34.2 17.1h17.1c4.7 0 8.5-3.8 8.5-8.5s-3.8-8.5-8.5-8.5h-17.1c-4.7 0-8.5 3.8-8.5 8.5s3.8 8.5 8.5 8.5zm394.3 399.3c-3.4-3.3-8.8-3.2-12.1.2-3.2 3.3-3.2 8.6 0 11.9l12.8 12.8c3.4 3.3 8.8 3.2 12.1-.2 3.2-3.3 3.2-8.6 0-11.9l-12.8-12.8zm-37.7-13.5c3.4 3.3 8.8 3.2 12.1-.2 3.2-3.3 3.2-8.6 0-11.9l-12.8-12.8c-3.4-3.3-8.8-3.2-12.1.2-3.2 3.3-3.2 8.6 0 11.9l12.8 12.8zm-12.8 38.4c3.3 3.3 8.7 3.3 12.1 0l12.8-12.8c3.3-3.4 3.2-8.8-.2-12.1-3.3-3.2-8.6-3.2-11.9 0l-12.8 12.8c-3.3 3.3-3.3 8.7 0 12.1zm51.2-63.3-12.8 12.8c-3.4 3.3-3.5 8.7-.2 12.1 3.3 3.4 8.7 3.5 12.1.2l.2-.2 12.8-12.8c3.3-3.4 3.2-8.8-.2-12.1-3.3-3.2-8.6-3.2-11.9 0z"
      fill="#162b49" />
    <path
      d="M1038.1 494.1v-88.7l5.3 8.6c-5.5 4.4-12.9 8-22 10.5-9.2 2.6-19.1 3.9-29.8 3.9-16.7 0-30-3.2-39.9-9.6-9.9-6.4-17.1-15.2-21.5-26.5-4.4-11.2-6.6-24.2-6.6-38.8v-55.4h28.8v46.2c0 7.5.5 14.7 1.6 21.5 1.1 6.8 3.2 12.9 6.3 18.2 3.1 5.3 7.6 9.5 13.5 12.5s13.6 4.6 23.1 4.6c11.1 0 20.5-1.8 28.4-5.4 7.9-3.6 13.6-7.4 17-11.5l-4.2 16.3V298.3h28.7v195.8h-28.7zM1228.7 347.3v146.9h-27.3V392L1128 494.1h-23.1V347.3h27.3v100.1l73.6-100.1h22.9zM1329.6 498.2c-15.1 0-27.8-3.4-38.4-10.1-10.5-6.7-18.6-15.9-24.1-27.6-5.6-11.7-8.4-25-8.5-39.8.1-15.1 3-28.5 8.7-40.2 5.7-11.6 13.9-20.8 24.5-27.4 10.6-6.6 23.3-9.9 38.2-9.9 16 0 29.8 4 41.1 12 11.4 8 18.9 18.9 22.5 32.8l-28.3 8.2c-2.8-8.2-7.4-14.7-13.8-19.2-6.4-4.6-13.7-6.9-22-6.9-9.3 0-17 2.2-23 6.6-6 4.4-10.4 10.4-13.3 18-2.9 7.6-4.4 16.3-4.5 26.1.1 15.1 3.6 27.4 10.4 36.7 6.8 9.3 17 14 30.4 14 9.2 0 16.6-2.1 22.2-6.3 5.7-4.2 10-10.3 13-18.2l28.8 6.8c-4.8 14.3-12.7 25.3-23.8 33-10.9 7.6-24.3 11.4-40.1 11.4zM1453.9 494.1V372.8h-50.2v-25.6h128.8v25.6h-50.2v121.3h-28.4zM1558.2 494.1V347.3h28.6v51h19.3c4.2 0 8.7.1 13.5.3 4.8.2 8.9.6 12.2 1.4 7.9 1.6 14.7 4.4 20.5 8.2 5.8 3.8 10.3 8.9 13.4 15.2 3.1 6.3 4.7 14 4.7 23.2 0 12.8-3.3 23-9.9 30.5-6.6 7.6-15.6 12.7-26.9 15.3-3.6.8-7.9 1.3-12.9 1.6-4.9.2-9.5.3-13.7.3h-48.8zm28.6-22.8h21.9c2.4 0 5-.1 7.9-.3 2.9-.2 5.6-.6 8-1.2 4.3-1.3 8.1-3.9 11.6-7.8 3.4-3.9 5.2-9.1 5.2-15.6 0-6.7-1.7-12.1-5.1-16-3.4-4-7.7-6.6-12.9-7.8-2.4-.6-4.8-1-7.4-1.2-2.6-.2-5-.3-7.3-.3h-21.9v50.2zm99.8 22.8V347.3h28.4v146.9h-28.4zM1876.8 347.3v146.9h-27.3V392l-73.4 102.1H1753V347.3h27.3v100.1l73.6-100.1h22.9zm-58.2-16.9c-7.2 0-13.7-1.8-19.7-5.3-5.9-3.5-10.7-8.2-14.2-14.1s-5.3-12.5-5.3-19.7h22.6c0 4.5 1.6 8.4 4.9 11.7 3.3 3.3 7.2 4.9 11.7 4.9 4.6 0 8.5-1.6 11.8-4.9 3.2-3.3 4.8-7.2 4.8-11.7h22.6c0 7.3-1.8 13.8-5.3 19.7-3.5 5.9-8.3 10.6-14.2 14.1-5.9 3.5-12.5 5.3-19.7 5.3zM1969.3 494.1V298.3h77c12.4 0 22.8 2.5 31.3 7.6 8.4 5.1 14.8 11.6 19 19.7 4.3 8 6.4 16.5 6.4 25.4 0 10.8-2.7 20-8 27.7-5.3 7.7-12.4 13-21.4 15.8l-.3-6.7c12.5 3.1 22.1 9.1 28.8 18 6.7 8.9 10.1 19.3 10.1 31.2 0 11.5-2.3 21.5-6.9 30.1-4.6 8.5-11.2 15.2-20 19.9-8.8 4.8-19.3 7.1-31.8 7.1h-84.2zm28.9-115.8h47.7c5.3 0 10-1.1 14.2-3.2 4.2-2.1 7.6-5.2 10.1-9.2 2.5-4 3.7-8.9 3.7-14.6 0-7.6-2.5-13.9-7.6-18.8s-11.9-7.3-20.4-7.3h-47.7v53.1zm0 88.8h51.1c6.4 0 12.2-1.2 17.3-3.7 5.1-2.4 9.2-6 12.1-10.5 2.9-4.6 4.4-10 4.4-16.4 0-5.9-1.3-11.2-3.9-16-2.6-4.8-6.3-8.5-11.2-11.3-4.9-2.8-10.5-4.1-17.1-4.1H1998v62zM2204.5 498.2c-14.6 0-27.4-3.2-38.4-9.6-11-6.4-19.6-15.3-25.7-26.8-6.1-11.5-9.2-24.8-9.2-39.9 0-16 3-30 9-41.8 6-11.8 14.4-20.9 25.2-27.3 10.8-6.4 23.3-9.7 37.7-9.7 15 0 27.7 3.5 38.2 10.4 10.5 6.9 18.4 16.8 23.6 29.6 5.2 12.8 7.3 28 6.2 45.6h-28.4v-10.3c-.2-17-3.4-29.6-9.7-37.8-6.3-8.2-15.9-12.2-28.8-12.2-14.2 0-24.9 4.5-32.1 13.5-7.2 9-10.7 21.9-10.7 38.9 0 16.1 3.6 28.6 10.7 37.5 7.2 8.8 17.5 13.3 31 13.3 8.9 0 16.6-2 23.1-6.1 6.5-4 11.5-9.8 15.2-17.3l27.9 8.8c-5.7 13.1-14.4 23.3-26 30.5-11.7 7.1-24.6 10.7-38.8 10.7zm-52.4-69.5v-22.2H2257v22.2h-104.9zM2339.5 494.1V372.8h-50.2v-25.6h128.8v25.6h-50.2v121.3h-28.4zM2509.1 498.2c-14.6 0-27.4-3.2-38.4-9.6-11-6.4-19.6-15.3-25.7-26.8-6.1-11.5-9.2-24.8-9.2-39.9 0-16 3-30 9-41.8 6-11.8 14.4-20.9 25.2-27.3 10.8-6.4 23.3-9.7 37.7-9.7 15 0 27.7 3.5 38.2 10.4 10.5 6.9 18.4 16.8 23.6 29.6 5.2 12.8 7.3 28 6.2 45.6h-28.4v-10.3c-.2-17-3.4-29.6-9.7-37.8-6.3-8.2-15.9-12.2-28.8-12.2-14.2 0-24.9 4.5-32.1 13.5-7.2 9-10.7 21.9-10.7 38.9 0 16.1 3.6 28.6 10.7 37.5 7.2 8.8 17.5 13.3 31 13.3 8.9 0 16.6-2 23.1-6.1 6.5-4 11.5-9.8 15.2-17.3l27.9 8.8c-5.7 13.1-14.4 23.3-26 30.5-11.6 7.1-24.6 10.7-38.8 10.7zm-52.4-69.5v-22.2h104.9v22.2h-104.9zM2606.1 559.4V347.3h25.3V453h3.3v106.5h-28.6zm69.1-61.2c-14.1 0-25.8-3.4-35.4-10.3-9.5-6.8-16.7-16.1-21.6-27.8-4.9-11.7-7.3-24.9-7.3-39.6 0-14.7 2.4-27.9 7.3-39.6 4.8-11.7 12-20.9 21.5-27.7 9.5-6.8 21.1-10.1 35-10.1 13.8 0 25.7 3.4 35.7 10.1 10 6.8 17.7 16 23.2 27.6 5.4 11.7 8.2 24.9 8.2 39.6 0 14.7-2.7 27.9-8.1 39.6-5.4 11.7-13.1 21-23 27.8s-21.8 10.4-35.5 10.4zm-4-25.7c9.1 0 16.6-2.3 22.5-6.9 5.9-4.6 10.4-10.9 13.3-18.7 2.9-7.8 4.4-16.6 4.4-26.3 0-9.6-1.5-18.3-4.4-26.1-2.9-7.8-7.5-14-13.5-18.6-6.1-4.6-13.8-6.9-23.3-6.9-8.9 0-16.2 2.2-22 6.5-5.8 4.4-10 10.4-12.8 18.2-2.8 7.8-4.1 16.8-4.1 26.9 0 10.2 1.4 19.1 4.1 26.9 2.7 7.8 7 13.9 12.9 18.4 6 4.4 13.6 6.6 22.9 6.6z"
      fill="#162b49" />
  </symbol>
  <symbol id="logo-old" viewBox="0 0 2361.5 512">
    <style>
      .st0 {
        fill: #ffc73e
      }
    </style>
    <path
      d="M512 145.1c0-33-26.8-59.7-59.7-59.7h-256c-5.2 0-10.5.7-15.5 2.1-3.2.8-87.5 32.5-137.4 51.4h-.1c-9.7 2.7-18.6 7.9-25.7 15.1C6.2 165.1-.1 180.4 0 196.3c0 21 11.1 40.4 29.1 51.2C11.1 258.2 0 277.7 0 298.7c0 21 11.1 40.4 29.1 51.2C.8 366.7-8.5 403.4 8.4 431.7c10.8 18.1 30.3 29.1 51.3 29.1h256c8.8 0 17.5-2 25.5-5.8h.2l137.3-51.6c29.5-14.5 41.7-50.3 27.1-79.8-5.1-10.3-13.1-19-23-24.9 4.3-2.5 8.2-5.5 11.6-9 11.3-11.2 17.6-26.4 17.6-42.2-.1-21-11.1-40.4-29.1-51.1 4.2-2.5 8.1-5.5 11.6-9 11.2-11.2 17.6-26.5 17.5-42.3zm-326.5-41.2c3.5-1 7.1-1.5 10.8-1.5h256c23.6 0 42.6 19.1 42.7 42.7.1 11.3-4.5 22.2-12.5 30.1-2.9 3-6.3 5.5-10 7.4-.5.2-.9.5-1.3.7-11.5 4.3-31.8 11.9-63.2 23.7l-38 14.2c13.8-29.9.7-65.4-29.2-79.2-7.8-3.6-16.4-5.5-25-5.5H97.9c42.5-16 84.1-31.5 87.6-32.6zM17.1 196.3c0-11.3 4.5-22.2 12.6-30.2 5.2-5.2 11.6-9 18.7-10.9.2-.1.5-.1.7-.2 3.5-.9 7.1-1.4 10.7-1.4h256c23.6 0 42.6 19.1 42.7 42.7-.1 16-9 30.6-23.1 37.9-.2.1-.5.2-.7.3-5.8 2.9-12.3 4.4-18.8 4.4h-256c-23.7 0-42.8-19.1-42.8-42.6zm0 102.4c0-23.5 19.1-42.6 42.7-42.7h256c23.6 0 42.6 19.1 42.7 42.7-.1 16-9 30.6-23.1 37.9-.2.1-.5.2-.7.3-5.8 2.9-12.3 4.4-18.8 4.4h-256c-23.7 0-42.8-19.1-42.8-42.6zm42.6 145C36.1 443.7 17 424.6 17 401s19.1-42.7 42.7-42.7h256c23.6 0 42.7 19.1 42.7 42.7s-19.1 42.7-42.7 42.7h-256zm435.2-93.8c.1 11.3-4.5 22.2-12.5 30.1-3.1 3.1-6.6 5.7-10.5 7.8l-102.1 38.3c12.7-27.3 3-59.8-22.7-75.7l112.6-42.3c20.4 3.6 35.2 21.2 35.2 41.8zm0-102.4c.1 11.3-4.5 22.2-12.5 30.1-2.9 3-6.3 5.5-10 7.4l-1.3.7L370 323.6c12.6-27.3 2.9-59.8-22.8-75.6l66.7-25c19.5-7.3 34.6-13 46.1-17.3 20.1 3.7 34.8 21.2 34.9 41.8z"
      class="st0" />
    <path
      d="M332.8 196.3c0-4.7-3.8-8.5-8.5-8.5H51.2c-4.7 0-8.5 3.8-8.5 8.5s3.8 8.5 8.5 8.5h273.1c4.7 0 8.5-3.8 8.5-8.5zm0 102.4c0-4.7-3.8-8.5-8.5-8.5H51.2c-4.7 0-8.5 3.8-8.5 8.5s3.8 8.5 8.5 8.5h273.1c4.7 0 8.5-3.8 8.5-8.5zm-8.5 93.8H51.2c-4.7 0-8.5 3.8-8.5 8.5s3.8 8.5 8.5 8.5h273.1c4.7 0 8.5-3.8 8.5-8.5s-3.8-8.5-8.5-8.5zM85.3 17.1c-4.7 0-8.5 3.8-8.5 8.5v17.1c0 4.7 3.8 8.5 8.5 8.5s8.5-3.8 8.5-8.5V25.6c.1-4.7-3.8-8.5-8.5-8.5zm-8.5 76.8c0 4.7 3.8 8.5 8.5 8.5s8.5-3.8 8.5-8.5V76.8c0-4.7-3.8-8.5-8.5-8.5s-8.5 3.8-8.5 8.5v17.1zm-8.5-42.7H51.2c-4.7 0-8.5 3.8-8.5 8.5s3.8 8.5 8.5 8.5h17.1c4.7 0 8.5-3.8 8.5-8.5s-3.8-8.5-8.5-8.5zm34.1 17.1h17.1c4.7 0 8.5-3.8 8.5-8.5s-3.8-8.5-8.5-8.5h-17.1c-4.7 0-8.5 3.8-8.5 8.5s3.8 8.5 8.5 8.5zm394.3 399.3c-3.4-3.3-8.8-3.2-12.1.2-3.2 3.3-3.2 8.6 0 11.9l12.8 12.8c3.4 3.3 8.8 3.2 12.1-.2 3.2-3.3 3.2-8.6 0-11.9l-12.8-12.8zM459 454c3.4 3.3 8.8 3.2 12.1-.2 3.2-3.3 3.2-8.6 0-11.9l-12.8-12.8c-3.4-3.3-8.8-3.2-12.1.2-3.2 3.3-3.2 8.6 0 11.9L459 454zm-12.8 38.4c3.3 3.3 8.7 3.3 12.1 0l12.8-12.8c3.3-3.4 3.2-8.8-.2-12.1-3.3-3.2-8.6-3.2-11.9 0l-12.8 12.8c-3.3 3.4-3.3 8.8 0 12.1zm51.2-63.2L484.6 442c-3.4 3.3-3.5 8.7-.2 12.1s8.7 3.5 12.1.2l.2-.2 12.8-12.8c3.3-3.4 3.2-8.8-.2-12.1-3.3-3.2-8.6-3.2-11.9 0z"
      class="st0" />
    <path
      d="M697.8 146.5h31.3v190.4h-31.3v-73.2c-13.2 6-27.2 9-41.9 9-19 0-34.5-5.3-46.4-15.9-11.9-10.6-17.8-24.7-17.8-42.3v-68H623v64.7c0 9.8 3 17.5 9 23.1 6 5.6 14.1 8.4 24.5 8.4 15 0 28.8-3.1 41.3-9.2v-87zM863.7 200.9h22.6v136h-28.8v-86.5l-69.6 86.5h-22.6v-136h28.8v86.2l69.6-86.2zM984.5 340.5c-20.5 0-37.6-6.9-51.3-20.7-13.7-13.8-20.5-30.7-20.5-50.9 0-20.3 6.8-37.3 20.5-51 13.7-13.7 30.8-20.5 51.3-20.5 13.2 0 25.3 3.2 36.2 9.5 10.9 6.3 19 14.9 24.5 25.6l-25.3 14.7c-3.1-6.5-7.8-11.6-14-15.4-6.3-3.7-13.5-5.6-21.6-5.6-12 0-22 4.1-30.1 12.2-8.1 8.2-12.1 18.3-12.1 30.5s4 22.3 12.1 30.5 18.1 12.2 30.1 12.2c8 0 15.2-1.9 21.6-5.7 6.4-3.8 11.3-8.9 14.6-15.2l25.3 14.4c-5.8 10.9-14.1 19.5-25 25.8-11 6.4-23.1 9.6-36.3 9.6zM1169.4 200.9v28.3h-44.3v107.7h-29.4V229.2h-44.6v-28.3h118.3zM1248.6 247.2c14.5 0 26.4 4.1 35.6 12.4 9.2 8.3 13.9 19.1 13.9 32.5 0 13.2-4.6 24-13.9 32.4-9.2 8.3-21.1 12.5-35.6 12.5h-59.3V201h29.4v46.2h29.9zm.3 63.3c5.8 0 10.7-1.7 14.6-5.2 3.9-3.4 5.8-7.9 5.8-13.3 0-5.6-2-10.1-5.8-13.5-3.9-3.4-8.8-5-14.6-5h-30.2v37h30.2zm65.5-109.6h29.4v136h-29.4v-136zM1476.2 200.9h22.6v136H1470v-86.5l-69.6 86.5h-22.6v-136h28.8v86.2l69.6-86.2zm-76.1-19v-25.6h76.2v25.6h-76.2zM1714.8 238.2c8.3 4.4 14.9 10.3 19.6 18 4.7 7.6 7.1 16.4 7.1 26.4 0 15.6-5.5 28.6-16.6 38.9-11.1 10.3-24.6 15.5-40.5 15.5h-81.6V146.5h75.6c15.6 0 28.8 5 39.6 15.1s16.2 22.6 16.2 37.7c-.1 16.5-6.5 29.5-19.4 38.9zm-36.5-62.3H1634v50h44.3c6.9 0 12.7-2.4 17.4-7.2 4.7-4.8 7.1-10.7 7.1-17.8s-2.4-13-7.1-17.8c-4.7-4.8-10.5-7.2-17.4-7.2zm6 131.6c7.3 0 13.4-2.6 18.4-7.8 5-5.2 7.5-11.5 7.5-18.9 0-7.4-2.5-13.7-7.5-18.9-5-5.2-11.1-7.8-18.4-7.8H1634v53.3h50.3zM1791.2 281.4c2.2 10.3 7.2 18.3 15 23.8s17.3 8.3 28.6 8.3c15.6 0 27.3-5.6 35.1-16.9l24.2 14.1c-13.4 19.8-33.3 29.6-59.6 29.6-22.1 0-40-6.8-53.6-20.3-13.6-13.5-20.4-30.6-20.4-51.3 0-20.3 6.7-37.3 20.1-51 13.4-13.7 30.6-20.5 51.7-20.5 19.9 0 36.3 7 49.1 20.9 12.8 14 19.2 30.9 19.2 50.9 0 3.1-.4 7.2-1.1 12.2h-108.3zm-.3-23.9h80c-2-11.1-6.6-19.4-13.7-25-7.2-5.6-15.6-8.4-25.2-8.4-10.9 0-19.9 3-27.2 9-7.2 5.9-11.9 14.1-13.9 24.4zM2024.9 200.9v28.3h-44.3v107.7h-29.4V229.2h-44.6v-28.3h118.3zM2062.4 281.4c2.2 10.3 7.2 18.3 15 23.8s17.3 8.3 28.6 8.3c15.6 0 27.3-5.6 35.1-16.9l24.2 14.1c-13.4 19.8-33.3 29.6-59.6 29.6-22.1 0-40-6.8-53.6-20.3-13.6-13.5-20.4-30.6-20.4-51.3 0-20.3 6.7-37.3 20.1-51 13.4-13.7 30.6-20.5 51.7-20.5 19.9 0 36.3 7 49.1 20.9 12.8 14 19.2 30.9 19.2 50.9 0 3.1-.4 7.2-1.1 12.2h-108.3zm-.3-23.9h80c-2-11.1-6.6-19.4-13.7-25-7.2-5.6-15.6-8.4-25.2-8.4-10.9 0-19.9 3-27.2 9-7.3 5.9-11.9 14.1-13.9 24.4zM2274.5 197.4c18.7 0 34.6 6.9 47.9 20.8 13.2 13.9 19.9 30.8 19.9 50.7 0 20.1-6.6 37.1-19.9 50.9-13.2 13.8-29.2 20.7-47.9 20.7-20.7 0-36.5-7.6-47.6-22.8v73.7h-29.4V200.9h29.4v19.6c11.1-15.4 27-23.1 47.6-23.1zm-35.3 102.7c8.2 8.3 18.4 12.4 30.7 12.4s22.6-4.1 30.7-12.4c8.2-8.2 12.2-18.6 12.2-31.1s-4.1-22.9-12.2-31.1c-8.2-8.2-18.4-12.4-30.7-12.4s-22.6 4.1-30.7 12.4c-8.2 8.3-12.2 18.6-12.2 31.1-.1 12.4 4 22.8 12.2 31.1z" />
  </symbol>
  <symbol id="icon-burger" viewBox="0 0 384 256">
    <path
      d="M368 144H16c-8.8 0-16-7.2-16-16s7.2-16 16-16h352c8.8 0 16 7.2 16 16s-7.2 16-16 16zm0-112H16C7.2 32 0 24.8 0 16S7.2 0 16 0h352c8.8 0 16 7.2 16 16s-7.2 16-16 16zm0 224H16c-8.8 0-16-7.2-16-16s7.2-16 16-16h352c8.8 0 16 7.2 16 16s-7.2 16-16 16z">
    </path>
  </symbol>
  <symbol id="icon-cross" viewBox="0 0 329.269 329">
    <path
      d="M194.8 164.77 323.013 36.555c8.343-8.34 8.343-21.825 0-30.164-8.34-8.34-21.825-8.34-30.164 0L164.633 134.605 36.422 6.391c-8.344-8.34-21.824-8.34-30.164 0-8.344 8.34-8.344 21.824 0 30.164l128.21 128.215L6.259 292.984c-8.344 8.34-8.344 21.825 0 30.164a21.266 21.266 0 0 0 15.082 6.25c5.46 0 10.922-2.09 15.082-6.25l128.21-128.214 128.216 128.214a21.273 21.273 0 0 0 15.082 6.25c5.46 0 10.922-2.09 15.082-6.25 8.343-8.34 8.343-21.824 0-30.164zm0 0" />
  </symbol>
  <symbol id="icon-phone" viewBox="0 0 480.56 480.56">
    <path
      d="M365.354 317.9c-15.7-15.5-35.3-15.5-50.9 0-11.9 11.8-23.8 23.6-35.5 35.6-3.2 3.3-5.9 4-9.8 1.8-7.7-4.2-15.9-7.6-23.3-12.2-34.5-21.7-63.4-49.6-89-81-12.7-15.6-24-32.3-31.9-51.1-1.6-3.8-1.3-6.3 1.8-9.4 11.9-11.5 23.5-23.3 35.2-35.1 16.3-16.4 16.3-35.6-.1-52.1-9.3-9.4-18.6-18.6-27.9-28-9.6-9.6-19.1-19.3-28.8-28.8-15.7-15.3-35.3-15.3-50.9.1-12 11.8-23.5 23.9-35.7 35.5-11.3 10.7-17 23.8-18.2 39.1-1.9 24.9 4.2 48.4 12.8 71.3 17.6 47.4 44.4 89.5 76.9 128.1 43.9 52.2 96.3 93.5 157.6 123.3 27.6 13.4 56.2 23.7 87.3 25.4 21.4 1.2 40-4.2 54.9-20.9 10.2-11.4 21.7-21.8 32.5-32.7 16-16.2 16.1-35.8.2-51.8-19-19.1-38.1-38.1-57.2-57.1zm-19.1-79.7 36.9-6.3c-5.8-33.9-21.8-64.6-46.1-89-25.7-25.7-58.2-41.9-94-46.9l-5.2 37.1c27.7 3.9 52.9 16.4 72.8 36.3 18.8 18.8 31.1 42.6 35.6 68.8zm57.7-160.4c-42.6-42.6-96.5-69.5-156-77.8l-5.2 37.1c51.4 7.2 98 30.5 134.8 67.2 34.9 34.9 57.8 79 66.1 127.5l36.9-6.3c-9.7-56.2-36.2-107.2-76.6-147.7z" />
  </symbol>
  <symbol id="icon-whatsapp" viewBox="0 0 24 24">
    <path
      d="m17.507 14.307-.009.075c-2.199-1.096-2.429-1.242-2.713-.816-.197.295-.771.964-.944 1.162-.175.195-.349.21-.646.075-.3-.15-1.263-.465-2.403-1.485-.888-.795-1.484-1.77-1.66-2.07-.293-.506.32-.578.878-1.634.1-.21.049-.375-.025-.524-.075-.15-.672-1.62-.922-2.206-.24-.584-.487-.51-.672-.51-.576-.05-.997-.042-1.368.344-1.614 1.774-1.207 3.604.174 5.55 2.714 3.552 4.16 4.206 6.804 5.114.714.227 1.365.195 1.88.121.574-.091 1.767-.721 2.016-1.426.255-.705.255-1.29.18-1.425-.074-.135-.27-.21-.57-.345z" />
    <path
      d="M20.52 3.449C12.831-3.984.106 1.407.101 11.893c0 2.096.549 4.14 1.595 5.945L0 24l6.335-1.652c7.905 4.27 17.661-1.4 17.665-10.449 0-3.176-1.24-6.165-3.495-8.411zm1.482 8.417c-.006 7.633-8.385 12.4-15.012 8.504l-.36-.214-3.75.975 1.005-3.645-.239-.375c-4.124-6.565.614-15.145 8.426-15.145a9.865 9.865 0 0 1 7.021 2.91 9.788 9.788 0 0 1 2.909 6.99z" />
  </symbol>
  <symbol id="icon-telegram" viewBox="0 0 512 512">
    <path
      d="M256 0C114.62 0 0 114.62 0 256s114.62 256 256 256 256-114.62 256-256S397.38 0 256 0zm118.66 174.1c-3.85 40.48-20.52 138.71-29 184.05-3.59 19.19-10.66 25.62-17.5 26.25-14.86 1.37-26.15-9.83-40.55-19.27-22.53-14.77-35.26-23.96-57.13-38.37-25.28-16.66-8.89-25.81 5.51-40.77 3.77-3.92 69.27-63.5 70.54-68.9.16-.68.31-3.2-1.19-4.53s-3.71-.87-5.3-.51c-2.26.51-38.26 24.3-107.98 71.37-10.22 7.02-19.47 10.43-27.77 10.26-9.14-.2-26.72-5.17-39.79-9.42-16.03-5.21-28.77-7.97-27.66-16.82.57-4.61 6.92-9.32 19.04-14.14 74.63-32.52 124.39-53.95 149.29-64.31 71.099-29.569 85.87-34.71 95.499-34.88 12.062-.213 14.973 9.743 13.991 19.99z">
    </path>
  </symbol>
  <symbol id="icon-doc" fill="currentColor">
    <path
      d="M3 1.49988L15 1.50004V16.4999H3V1.49988ZM5.25 6.74988V8.24988H12.75V6.74988H5.25ZM5.25 12.7499V14.2499H10.5V12.7499H5.25ZM5.25 3.74988V5.24988H12.75V3.74988H5.25ZM5.25 9.74988V11.2499H12.75V9.74988H5.25Z" />
  </symbol>
  <symbol id="icon-pdf" viewBox="0 0 40 40" fill="none">
    <path d="M35.076 13.1612V38.75H4.9248L4.9248 1.25C4.9248 1.25 21.5827 1.25 23.8657 1.25L35.076 13.1612Z"
      fill="#E5252A" />
    <path d="M35.0764 13.1612C33.6688 13.1612 23.8662 13.1612 23.8662 13.1612V1.25L35.0764 13.1612Z" fill="#ED676A" />
    <path
      d="M12.7919 27.5848V30.0798H11.0205V22.7296H13.9529C14.5153 22.7296 15.0129 22.833 15.4455 23.0397C15.8782 23.2464 16.2122 23.542 16.4502 23.9242C16.6857 24.3064 16.8059 24.7391 16.8059 25.2245C16.8059 25.9408 16.5487 26.5129 16.0343 26.9431C15.5224 27.3709 14.8181 27.5848 13.9216 27.5848H12.7919ZM12.7919 26.2172H13.9529C14.2966 26.2172 14.5586 26.1331 14.7388 25.96C14.919 25.7894 15.008 25.5466 15.008 25.2341C15.008 24.8904 14.9143 24.6164 14.7292 24.4097C14.5441 24.2054 14.2918 24.102 13.9721 24.0972H12.7919V26.2172ZM17.7481 30.0798V22.7296H20.1156C20.7646 22.7296 21.3486 22.8763 21.8678 23.1719C22.3846 23.4651 22.7907 23.8809 23.0816 24.4194C23.3725 24.9554 23.519 25.5563 23.5214 26.222V26.5609C23.5214 27.2339 23.3796 27.8373 23.096 28.3709C22.8124 28.9045 22.411 29.3203 21.8942 29.6231C21.3774 29.9236 20.8005 30.075 20.166 30.0798H17.7481V30.0798ZM19.5196 24.0973V28.717H20.1349C20.6444 28.717 21.0338 28.5367 21.3054 28.1738C21.5794 27.8132 21.7164 27.2748 21.7164 26.5609V26.2437C21.7164 25.5322 21.5794 24.9986 21.3054 24.6381C21.0338 24.2775 20.6372 24.0973 20.1157 24.0973H19.5196ZM29.0618 27.1522H26.2039V30.0798H24.4325V22.7296H29.3479V24.0973H26.2039V25.7894H29.0618V27.1522Z"
      fill="white" />
  </symbol>
  <symbol id="icon-word" xmlns="http://www.w3.org/2000/svg" xml:space="preserve" viewBox="0 0 512 512">
    <path fill="#518ef8"
      d="M441.412 140.235v338.781c0 18.219-14.778 32.983-32.983 32.983H103.572c-18.219 0-32.983-14.764-32.983-32.983V32.983C70.588 14.764 85.352 0 103.572 0h197.605z"
      data-original="#518ef8" />
    <path fill="#fff"
      d="M161.18 257.054h189.626v21.071H161.18zm0 47.058h189.626v21.071H161.18zm0 47.059h189.626v21.071H161.18zm0 47.059h134.855v21.071H161.18z"
      data-original="#ffffff" />
    <path fill="#3a5bbc" d="m320.31 137.188 121.102 49.891v-46.844l-68.661-20.273z" data-original="#3a5bbc" />
    <path fill="#acd1fc" d="M441.412 140.235H334.16c-18.22 0-32.983-14.764-32.983-32.983V0z" data-original="#acd1fc" />
  </symbol>

  <symbol id="arrow-right-double" viewBox="0 0 20 20" fill="none">
    <path d="M10.8333 5.83337L15 10L10.8333 14.1667M5 5.83337L9.16667 10L5 14.1667" stroke="white" stroke-width="1.5"
      stroke-linecap="square" />
  </symbol>

  <symbol id="arrow-left" viewBox="0 0 512 512" fill="currentColor">
    <path
      d="M186.1 79 15.4 249.6c-3.5 3.5-3.5 9.2 0 12.7L186.1 433c3.5 3.5 9.2 3.5 12.7 0l14-14c3.5-3.5 3.5-9.2 0-12.7L81.5 274.9h408.7c5 0 9-4 9-9v-19.8c0-5-4-9-9-9H81.5l131.3-131.3c3.5-3.5 3.5-9.2 0-12.7l-14-14c-3.5-3.6-9.2-3.6-12.7-.1z" />
  </symbol>

  <symbol id="arrow-right" viewBox="0 0 100 100" fill="currentColor">
    <path
      d="m61.171 15.43-2.735 2.737a1.76 1.76 0 0 0 0 2.488l25.651 25.65H4.26a1.76 1.76 0 0 0-1.759 1.76v3.87a1.76 1.76 0 0 0 1.76 1.759h79.827L58.435 79.345a1.76 1.76 0 0 0 0 2.488l2.736 2.736a1.76 1.76 0 0 0 2.488 0l33.326-33.325a1.76 1.76 0 0 0 0-2.488L63.659 15.43a1.76 1.76 0 0 0-2.488 0z" />
  </symbol>

  <symbol id="arrow-down" viewBox="0 0 24 24" fill="currentColor">
    <path
      d="M12 16a1 1 0 0 1-.71-.29l-6-6a1 1 0 0 1 1.42-1.42l5.29 5.3 5.29-5.29a1 1 0 0 1 1.41 1.41l-6 6a1 1 0 0 1-.7.29z" />
  </symbol>
</svg>
